<?xml version="1.0" encoding="UTF-8"?>
<svg width="1477px" height="1884px" viewBox="0 0 1477 1884" version="1.1" xmlns="http://www.w3.org/2000/svg" xmlns:xlink="http://www.w3.org/1999/xlink">
    <title>Path</title>
    <g id="Page-1" stroke="none" stroke-width="1" fill="none" fill-rule="evenodd">
        <g id="counter-strike" fill="#000000" fill-rule="nonzero">
            <path d="M797.784681,81.2704559 C805.03478,115.393907 843.438254,152.941377 810.572869,187.933802 C798.186744,206.701052 789.678578,226.752309 793.504659,251.926622 C851.103385,291.601133 866.057524,178.12866 934.291457,217.803171 C950.07566,204.146008 965.859864,190.929818 989.737201,196.467908 C984.614144,262.159767 1058.01004,227.608313 1092.1335,243.392517 C1125.41391,236.570421 1182.99967,262.159767 1185.98271,209.256096 C1192.81778,211.396107 1199.21187,214.807155 1207.31798,213.523148 C1211.17,231.447364 1194.08882,250.214613 1220.1321,256.193675 C1249.57347,248.943576 1287.51003,274.10492 1292.65903,234.858412 C1302.03617,232.7184 1310.99828,239.981469 1313.99429,243.392517 L1305.46019,251.926622 C1329.7785,275.388927 1354.09681,260.460728 1386.52122,264.72778 C1406.55951,257.905684 1380.97016,221.214219 1412.11056,230.604329 C1421.07267,246.388533 1410.41153,269.850837 1429.17878,281.795991 C1424.05572,287.34705 1416.39059,287.34705 1412.11056,294.597149 C1412.53857,311.65239 1433.87383,313.792401 1446.23402,320.199465 L1471.8493,320.199465 C1470.55233,324.038515 1473.97634,326.165556 1476.10338,328.73357 C1402.31839,355.619893 1279.02781,299.720206 1254.26853,409.7946 C1236.75934,404.256511 1228.25118,425.578804 1220.14507,435.396916 C1203.93287,432.841873 1193.67378,416.629667 1177.46158,414.061653 C1174.47853,484.876569 1210.31399,550.153396 1245.73442,610.307166 C1236.35728,621.824317 1224.84013,629.074415 1211.61097,631.642429 C1167.22843,572.344664 1149.74519,501.95775 1122.01583,435.396916 C1101.54954,449.054079 1125.43985,472.516383 1117.76175,495.122684 C1121.15983,509.622881 1113.48173,516.016975 1100.69354,516.457947 L1019.63251,499.389736 C978.24599,521.568034 963.31779,599.218017 904.448028,580.450767 C897.197929,584.717819 893.786881,597.94698 883.112764,593.251925 L878.832742,588.984872 C849.832348,600.502023 819.119944,619.697275 784.983523,606.053083 C767.50028,610.320135 744.478947,602.214032 733.817801,623.108323 C726.541763,663.210836 731.236818,708.008404 721.003673,746.826911 C700.952417,741.275851 680.90116,753.649007 678.333147,772.429227 C674.922098,802.298595 683.884206,826.616904 686.867252,853.490257 L720.990703,844.956152 C741.910934,887.185706 785.398556,920.038121 810.585839,960.140634 C838.328166,994.705057 882.684762,1029.68451 883.112764,1079.59217 C872.87962,1082.14721 866.070493,1093.66436 857.523418,1100.92743 C856.667414,1136.77586 896.328955,1155.97111 908.689141,1186.25551 C947.092614,1228.91307 961.177779,1281.38874 1002.5643,1322.76229 C986.780095,1431.55268 1048.19193,1508.34666 1032.40773,1617.12407 C1023.03059,1697.3291 1090.87543,1745.96572 1113.46876,1813.36959 L1113.46876,1868.8283 C1034.56071,1912.76986 968.85588,1848.34904 908.689141,1809.10253 C860.052522,1772.83907 885.667808,1721.64741 878.819772,1668.32871 C845.565295,1570.21243 824.658034,1466.53213 797.784681,1365.43282 C770.042354,1316.3682 705.621532,1281.81674 686.854282,1228.91307 C641.628712,1178.56444 607.505261,1101.35543 537.533379,1083.85922 C521.321173,1088.98228 534.978335,1106.03752 524.745191,1113.71562 C473.507678,1212.31349 434.812114,1316.93661 409.560709,1425.14561 C372.01324,1490.85044 346.851896,1561.66536 315.71149,1629.92523 C274.32497,1640.17135 222.705306,1626.51418 183.458798,1642.72639 C186.441844,1681.11689 214.599203,1719.52037 191.992903,1757.92384 C152.318392,1754.9408 101.554732,1803.57741 72.5413684,1749.38974 C16.2266492,1725.49943 24.3457221,1652.5445 0.0144431302,1604.33589 C14.5146403,1538.19008 73.8124053,1490.42244 110.944842,1433.67972 C137.818195,1416.62448 176.636701,1418.76449 192.005873,1382.48806 C220.591235,1230.62508 267.943846,1086.85524 315.72446,943.085393 C319.135508,899.14383 271.782897,860.740356 307.190355,819.366806 C302.054328,812.116707 292.262155,815.955758 285.855091,810.8327 C322.974559,675.16896 353.25896,537.365208 358.382017,388.485277 C402.32358,329.602544 442.413123,261.770674 503.435867,217.84208 C510.685966,216.558073 520.491108,221.253128 524.77113,213.575027 C517.949034,140.205068 525.627135,54.4489821 601.552138,17.3424848 C670.642076,-21.1258378 765.762332,6.60351948 797.784681,81.2704559 L797.784681,81.2704559 Z" id="Path"></path>
        </g>
    </g>
</svg>