<svg width="24" height="24" viewBox="0 0 24 24" fill="none" xmlns="http://www.w3.org/2000/svg">
<path d="M23.1427 0H0.857389C0.383993 0 0.000244433 0.383749 0.000244433 0.857145V5.14277C4.35441e-05 5.38594 0.1032 5.61777 0.28395 5.78049L8.57154 13.2392V23.1425C8.57134 23.6158 8.95489 23.9997 9.42828 24C9.56142 24 9.69275 23.9691 9.81183 23.9096L14.9546 21.3382C15.2452 21.193 15.4287 20.896 15.4286 20.5711V13.2392L23.7162 5.7822C23.8974 5.61913 24.0005 5.38655 23.9999 5.14277V0.857145C23.9998 0.383749 23.6161 0 23.1427 0Z" fill="url(#paint0_linear)"/>
<defs>
<linearGradient id="paint0_linear" x1="12.0001" y1="0" x2="12.0001" y2="24" gradientUnits="userSpaceOnUse">
<stop stop-color="#FFCC00"/>
<stop offset="1" stop-color="#FF9500"/>
</linearGradient>
</defs>
</svg>
