<svg width="30" height="26" viewBox="0 0 30 26" fill="none" xmlns="http://www.w3.org/2000/svg">
<path fill-rule="evenodd" clip-rule="evenodd" d="M4.48587 7.93346L12.793 11.8292C13.8573 12.265 15.031 12.2698 16.0981 11.8413C18.9619 10.6909 24.5091 7.94263 24.5091 7.94263C24.8469 7.77083 25.0084 7.42338 24.9997 7.07931C25.008 6.74006 24.8478 6.39647 24.5141 6.22613L16.207 2.33035C15.1427 1.89411 13.969 1.88976 12.9019 2.31828C10.0381 3.46873 4.49049 6.21696 4.49049 6.21696C4.15311 6.38875 3.99157 6.7362 4.00034 7.07979C3.99203 7.41952 4.15218 7.76311 4.48587 7.93346ZM24.5141 12.1464L22.728 11.3092C20.8542 12.2149 17.9285 13.6023 16.0981 14.3378C15.031 14.7663 13.8573 14.7615 12.793 14.3257L6.27201 11.2677C5.21463 11.7787 4.49049 12.1373 4.49049 12.1373C4.15311 12.3091 3.99157 12.6565 4.00034 13.0006C3.99203 13.3398 4.15218 13.6834 4.48587 13.8538L12.793 17.7495C13.8573 18.1853 15.031 18.1901 16.0981 17.7616C18.9619 16.6112 24.5091 13.8629 24.5091 13.8629C24.8469 13.6911 25.0084 13.3437 24.9997 13.0001C25.008 12.6604 24.8478 12.3168 24.5141 12.1464ZM22.728 17.2295L24.5141 18.0667C24.8478 18.2371 25.008 18.5807 24.9997 18.9204C25.0084 19.264 24.8469 19.6114 24.5091 19.7832C24.5091 19.7832 18.9619 22.5315 16.0981 23.6819C15.031 24.1104 13.8573 24.1056 12.793 23.6698L4.48587 19.7741C4.15218 19.6037 3.99203 19.2601 4.00034 18.9209C3.99157 18.5768 4.15311 18.2293 4.49049 18.0576C4.49049 18.0576 5.21463 17.699 6.27201 17.188L12.793 20.246C13.8573 20.6818 15.031 20.6866 16.0981 20.2586C17.9285 19.5226 20.8542 18.1352 22.728 17.2295Z" fill="#A1A1A1"/>
</svg>
