<?xml version="1.0" encoding="iso-8859-1"?>
<!-- Generator: Adobe Illustrator 19.0.0, SVG Export Plug-In . SVG Version: 6.00 Build 0)  -->
<svg version="1.1" id="Capa_1" xmlns="http://www.w3.org/2000/svg" xmlns:xlink="http://www.w3.org/1999/xlink" x="0px" y="0px"
	 viewBox="0 0 512 512" style="enable-background:new 0 0 512 512;" xml:space="preserve">
<g>
	<g>
		<path d="M512,0h-63.541L422,13.229L395.541,0H271l-30,15h-82.918l-30-15H0v241l15,30v82.918l-15,30V512h256l26.459-13.229
			L308.918,512H512V308.918l-13.229-26.459L512,256V0z M135,422l-45-45v-90l135,135H135z M407,422h-60l-38.885-45.694l-8.019-32.568
			l-30.866-13.126L256,315.066L90,120l30-30l136,102.225L422,317L407,422z M422,225L287,90h90l45,45V225z"/>
	</g>
</g>

</svg>
