<?xml version="1.0" encoding="UTF-8"?>
<svg width="20px" height="20px" viewBox="0 0 20 20" version="1.1" xmlns="http://www.w3.org/2000/svg" xmlns:xlink="http://www.w3.org/1999/xlink">
    <title>Path</title>
    <g id="Page-1" stroke="none" stroke-width="1" fill="none" fill-rule="evenodd">
        <g id="home_icon" fill="#000000" fill-rule="nonzero">
            <path d="M19.93,9.36 C19.7815757,9.74465191 19.4122928,9.99878209 19,10 L17,10 L17,19 C17,19.5522847 16.5522847,20 16,20 L13,20 C12.4477153,20 12,19.5522847 12,19 L12,15.12 C12.0446549,14.1008325 11.3401316,13.20108 10.34,13 C9.7536455,12.8987823 9.15266958,13.0639042 8.70034638,13.4505053 C8.24802318,13.8371063 7.99132792,14.4050366 8,15 L8,19 C8,19.5522847 7.55228475,20 7,20 L4,20 C3.44771525,20 3,19.5522847 3,19 L3,10 L1,10 C0.587707179,9.99878209 0.218424264,9.74465191 0.07,9.36 C-0.0809907045,8.96994458 0.0267221143,8.52712522 0.34,8.25 L9.34,0.25 C9.71750626,-0.0816458682 10.2824937,-0.0816458682 10.66,0.25 L19.66,8.25 C19.9732779,8.52712522 20.0809907,8.96994458 19.93,9.36 Z" id="Path"></path>
        </g>
    </g>
</svg>